<svg width="24" height="24" viewBox="0 0 24 24" fill="none" xmlns="http://www.w3.org/2000/svg">
<g clip-path="url(#clip0_34_1374)">
<path d="M16.499 0C15.2195 0.0884995 13.724 0.907495 12.8525 1.97399C12.0575 2.94148 11.4035 4.37847 11.6585 5.77497C13.0565 5.81847 14.501 4.97997 15.338 3.89548C16.121 2.88598 16.7135 1.45799 16.499 0Z" fill="black"/>
<path d="M21.5554 8.05198C20.327 6.51149 18.6005 5.61749 16.97 5.61749C14.8175 5.61749 13.907 6.64799 12.4115 6.64799C10.8695 6.64799 9.69801 5.62049 7.83652 5.62049C6.00803 5.62049 4.06105 6.73799 2.82655 8.64897C1.09106 11.34 1.38806 16.3994 4.20055 20.7089C5.20704 22.2509 6.55103 23.9849 8.30902 23.9999C9.87351 24.0149 10.3145 22.9964 12.434 22.9859C14.5535 22.9739 14.9555 24.0134 16.517 23.9969C18.2765 23.9834 19.694 22.0619 20.7004 20.5199C21.4219 19.4144 21.6904 18.8579 22.2499 17.6099C18.1805 16.0604 17.528 10.2735 21.5554 8.05198Z" fill="black"/>
</g>
<defs>
<clipPath id="clip0_34_1374">
<rect width="24" height="24" fill="white"/>
</clipPath>
</defs>
</svg>
