<svg width="40" height="40" viewBox="0 0 40 40" fill="none" xmlns="http://www.w3.org/2000/svg">
<g clip-path="url(#clip0_237_769)">
<circle cx="20" cy="20" r="17.5" fill="#F44545" stroke="#808080" stroke-width="3"/>
<path d="M28 6.14383C30.4132 7.5372 32.4207 9.53667 33.8237 11.9443C35.2267 14.3519 35.9766 17.0843 35.9991 19.8708C36.0216 22.6573 35.316 25.4014 33.952 27.8313C32.5881 30.2613 30.6132 32.293 28.2228 33.7251C25.8324 35.1573 23.1094 35.9403 20.3234 35.9967C17.5373 36.0531 14.7849 35.3809 12.3385 34.0466C9.89209 32.7123 7.83659 30.7623 6.37547 28.3895C4.91434 26.0166 4.09825 23.3034 4.008 20.5182L4 19.9998L4.008 19.4814C4.09761 16.7182 4.90168 14.0254 6.34182 11.6654C7.78197 9.30547 9.80905 7.35895 12.2254 6.01564C14.6418 4.67233 17.365 3.97806 20.1296 4.00053C22.8942 4.02299 25.6058 4.76142 28 6.14383ZM17.6176 15.4238C17.2824 15.2243 16.8858 15.1541 16.5024 15.2264C16.1191 15.2988 15.7753 15.5087 15.5359 15.8168C15.2965 16.1248 15.1779 16.5097 15.2023 16.899C15.2268 17.2884 15.3927 17.6554 15.6688 17.931L17.736 19.9998L15.6688 22.0686L15.536 22.219C15.2873 22.5406 15.1704 22.9448 15.209 23.3495C15.2475 23.7541 15.4386 24.129 15.7436 24.3978C16.0485 24.6667 16.4443 24.8094 16.8506 24.797C17.2569 24.7846 17.6433 24.618 17.9312 24.331L20 22.2638L22.0688 24.331L22.2192 24.4638C22.5408 24.7125 22.945 24.8294 23.3496 24.7909C23.7543 24.7523 24.1291 24.5612 24.398 24.2563C24.6669 23.9514 24.8096 23.5556 24.7972 23.1492C24.7848 22.7429 24.6182 22.3566 24.3312 22.0686L22.264 19.9998L24.3312 17.931L24.464 17.7806C24.7127 17.459 24.8296 17.0549 24.791 16.6502C24.7525 16.2455 24.5613 15.8707 24.2564 15.6018C23.9515 15.333 23.5557 15.1903 23.1494 15.2027C22.7431 15.2151 22.3567 15.3817 22.0688 15.6686L20 17.7358L17.9312 15.6686L17.7808 15.5358L17.6176 15.4238Z" fill="white"/>
</g>
<defs>
<clipPath id="clip0_237_769">
<rect width="40" height="40" fill="white"/>
</clipPath>
</defs>
</svg>
