<svg width="35" height="33" viewBox="0 0 35 33" fill="none" xmlns="http://www.w3.org/2000/svg">
<path d="M6.43294 29.5755H4.34117C2.68186 29.5755 1.33667 28.2303 1.33667 26.571V21.5496C1.33667 19.8902 2.68186 18.5451 4.34117 18.5451H6.43294" stroke="#569400" stroke-miterlimit="10" stroke-linecap="round" stroke-linejoin="round"/>
<path d="M5.20605 9.20792C6.49015 10.044 8.15067 9.78414 9.16607 8.60711C11.1388 6.32034 14.1822 4.85443 17.5967 4.85443C21.2914 4.85443 24.5515 6.21921 26.4909 8.68933C27.3829 9.82539 28.9168 10.1279 30.1348 9.40226" stroke="#569400" stroke-miterlimit="10" stroke-linecap="round" stroke-linejoin="round"/>
<path d="M19.7403 32.1776H7.12954C6.74479 32.1776 6.43286 31.8657 6.43286 31.4809V16.7692C6.43286 16.3844 6.74479 16.0725 7.12954 16.0725H9.074" stroke="#569400" stroke-miterlimit="10" stroke-linecap="round" stroke-linejoin="round"/>
<path d="M26.1273 16.0725H28.2112C28.5959 16.0725 28.9078 16.3844 28.9078 16.7692V31.4809C28.9078 31.8657 28.5959 32.1776 28.2112 32.1776H25.7344" stroke="#569400" stroke-miterlimit="10" stroke-linecap="round" stroke-linejoin="round"/>
<path d="M25.3526 29.3092H9.98825C9.62029 29.3092 9.32202 29.0109 9.32202 28.643V15.9572C9.32202 15.5892 9.62029 15.291 9.98825 15.291H25.3526C25.7205 15.291 26.0188 15.5892 26.0188 15.9572V28.643C26.0188 29.0109 25.7205 29.3092 25.3526 29.3092Z" stroke="#569400" stroke-miterlimit="10" stroke-linecap="round" stroke-linejoin="round"/>
<path d="M17.6704 32.132V15.3608" stroke="#569400" stroke-miterlimit="10" stroke-linecap="round" stroke-linejoin="round"/>
<path d="M20.4697 19.5133H23.2057" stroke="#569400" stroke-miterlimit="10" stroke-linecap="round" stroke-linejoin="round"/>
<path d="M20.4697 22.3H23.2057" stroke="#569400" stroke-miterlimit="10" stroke-linecap="round" stroke-linejoin="round"/>
<path d="M20.4697 25.0868H23.2057" stroke="#569400" stroke-miterlimit="10" stroke-linecap="round" stroke-linejoin="round"/>
<path d="M12.1304 19.5133H14.8664" stroke="#569400" stroke-miterlimit="10" stroke-linecap="round" stroke-linejoin="round"/>
<path d="M12.1304 22.3H14.8664" stroke="#569400" stroke-miterlimit="10" stroke-linecap="round" stroke-linejoin="round"/>
<path d="M12.1304 25.0868H14.8664" stroke="#569400" stroke-miterlimit="10" stroke-linecap="round" stroke-linejoin="round"/>
<path d="M28.908 18.545H30.9997C32.6591 18.545 34.0042 19.8902 34.0042 21.5495V26.5709C34.0042 28.2303 32.659 29.5754 30.9997 29.5754H28.908" stroke="#569400" stroke-miterlimit="10" stroke-linecap="round" stroke-linejoin="round"/>
<path d="M32.6959 19.0685C32.7319 18.6201 32.7505 18.1664 32.7505 17.708C32.7505 8.93444 26.0063 1.82242 17.687 1.82242C9.3678 1.82242 2.62354 8.93444 2.62354 17.708C2.62354 18.1591 2.64152 18.6055 2.67683 19.0472" stroke="#569400" stroke-miterlimit="10" stroke-linecap="round" stroke-linejoin="round"/>
</svg>
