<svg width="35" height="34" viewBox="0 0 35 34" fill="none" xmlns="http://www.w3.org/2000/svg">
<g clip-path="url(#clip0_661_5093)">
<path d="M5.984 21.3558C5.43849 23.6852 6.88879 26.0242 9.21612 26.5698C9.54841 26.6481 9.88407 26.6868 10.2171 26.6868C11.0138 26.6868 11.7969 26.4655 12.491 26.0354C13.4765 25.4248 14.1649 24.4668 14.4293 23.3379C14.975 21.0088 13.5258 18.6698 11.1982 18.1237C8.87086 17.5779 6.53186 19.0277 5.984 21.3551V21.3558ZM7.27737 21.6593C7.65765 20.0446 9.28019 19.0391 10.895 19.4171C12.5092 19.7958 13.5144 21.4186 13.1356 23.0349C12.9523 23.8181 12.4747 24.4824 11.7914 24.906C11.1084 25.3291 10.3022 25.4606 9.51988 25.2764C7.90512 24.8979 6.89942 23.2754 7.27737 21.6593Z" fill="#569400"/>
<path d="M7.13698 9.20064H22.2078C22.5746 9.20064 22.8721 8.90311 22.8721 8.53632C22.8721 8.16927 22.5749 7.87173 22.2078 7.87173H7.13698C6.76993 7.87173 6.47266 8.16927 6.47266 8.53632C6.47266 8.90311 6.76993 9.20064 7.13698 9.20064Z" fill="#569400"/>
<path d="M7.13698 12.6657H19.2932C19.6603 12.6657 19.9575 12.3684 19.9575 12.0014C19.9575 11.6346 19.6603 11.3371 19.2932 11.3371H7.13698C6.76993 11.3371 6.47266 11.6346 6.47266 12.0014C6.47266 12.3684 6.76993 12.6657 7.13698 12.6657Z" fill="#569400"/>
<path d="M9.30698 23.7965C9.43019 23.9125 9.59309 23.9765 9.7617 23.9765C9.77026 23.9765 9.77908 23.9765 9.7879 23.976C9.96585 23.969 10.1337 23.8909 10.2533 23.7592L12.0086 21.8279C12.2556 21.5563 12.2356 21.1361 11.964 20.8894C11.6924 20.6425 11.2722 20.6627 11.0255 20.934L9.72435 22.3657L9.35289 22.0168C9.08545 21.7657 8.66496 21.7786 8.41386 22.0461C8.1625 22.3135 8.17573 22.734 8.44318 22.9851L9.30698 23.7965Z" fill="#569400"/>
<path d="M7.13698 16.131H17.4025C17.7692 16.131 18.0668 15.8337 18.0668 15.4667C18.0668 15.0999 17.7692 14.8024 17.4025 14.8024H7.13698C6.76993 14.8024 6.47266 15.0999 6.47266 15.4667C6.47266 15.8337 6.76993 16.131 7.13698 16.131Z" fill="#569400"/>
<path d="M33.0977 24.5138C32.9223 22.5844 32.2411 20.8915 31.1794 19.7473C30.5654 19.0858 29.8409 18.6132 29.0197 18.3356C29.9488 17.4086 30.5506 16.061 30.8142 14.3082C30.8419 14.1225 30.7901 13.9336 30.671 13.7886C30.5522 13.6434 30.3771 13.5552 30.1895 13.5461C28.5955 13.4683 27.2778 13.7855 26.2589 14.4898V4.44974C26.2589 2.76727 24.8898 1.39842 23.2068 1.39842H20.1326V1.21581C20.1326 0.545517 19.5874 0 18.9171 0H9.53772C8.86743 0 8.32217 0.545517 8.32217 1.21581V1.39842H5.24985C3.56686 1.39842 2.19775 2.76727 2.19775 4.44974V14.2265C2.19775 14.5933 2.49529 14.8908 2.86208 14.8908C3.22887 14.8908 3.5264 14.5933 3.5264 14.2265V4.44974C3.5264 3.49982 4.29941 2.72707 5.24985 2.72707H8.32217V3.02278C8.32217 3.69333 8.86743 4.23859 9.53772 4.23859H18.9171C19.5874 4.23859 20.1326 3.69333 20.1326 3.02278V2.72707H23.2068C24.157 2.72707 24.93 3.49982 24.93 4.44974V15.8885C24.778 16.1318 24.6501 16.3795 24.545 16.6246C23.8815 15.78 22.784 15.2026 21.1256 15.2833C20.9381 15.2924 20.7632 15.3803 20.6442 15.5256C20.5251 15.6706 20.473 15.8592 20.5007 16.0449C20.6239 16.8713 20.8618 17.5663 21.2089 18.1281C21.1495 18.1382 21.0901 18.1489 21.0314 18.1608C19.9394 18.3829 18.9949 18.9167 18.2242 19.7473C17.1622 20.8915 16.4811 22.5844 16.3057 24.5138C16.1662 26.0517 16.3511 27.6323 16.8268 29.0517H5.24985C4.29941 29.0517 3.5264 28.2782 3.5264 27.3272V19.5307C3.5264 19.1639 3.22887 18.8664 2.86208 18.8664C2.49529 18.8664 2.19775 19.1639 2.19775 19.5307V27.3272C2.19775 29.0107 3.56686 30.3803 5.24985 30.3803H17.383C18.5679 32.6887 20.5329 34 22.8457 34H26.558C29.0386 34 31.1192 32.4919 32.2663 29.8626C32.9693 28.2512 33.2645 26.3516 33.0977 24.5138ZM18.804 2.9102H9.65082V1.32864H18.804V2.9102ZM29.3558 14.8727C28.987 16.4571 28.2669 17.4993 27.1712 18.0467C26.6176 18.0488 26.0394 18.1211 25.4389 18.2651C25.5525 17.5984 25.8379 16.6786 26.5507 15.9684C27.2194 15.302 28.1608 14.9347 29.3558 14.8727ZM23.3365 17.2623C23.635 17.5608 23.8068 17.9255 23.9059 18.2519C23.5819 18.1766 23.2646 18.1219 22.9541 18.0879C22.5108 17.7852 22.1915 17.3082 21.9889 16.6415C22.552 16.7211 23.0034 16.9289 23.3365 17.2623ZM31.0487 29.3313C30.5045 30.5788 29.1973 32.6714 26.558 32.6714H22.8457C20.294 32.6714 18.9876 30.7155 18.4118 29.4582C18.4107 29.4558 18.4097 29.4535 18.4084 29.4509C18.39 29.4104 18.3721 29.3702 18.355 29.3311C17.0619 26.3669 17.432 22.5543 19.1983 20.651C19.9835 19.8046 21.0068 19.3777 22.2179 19.3777C22.9137 19.3777 23.6714 19.5185 24.4815 19.802C24.6226 19.8513 24.7811 19.8513 24.9222 19.802C27.1421 19.0251 28.9691 19.3185 30.2054 20.651C31.9714 22.5543 32.3418 26.3672 31.0487 29.3313Z" fill="#569400"/>
<path d="M2.86208 17.5429C3.22887 17.5429 3.5264 17.2457 3.5264 16.8786V16.8654C3.5264 16.4986 3.22887 16.201 2.86208 16.201C2.49529 16.201 2.19775 16.4986 2.19775 16.8654V16.8786C2.19775 17.2454 2.49529 17.5429 2.86208 17.5429Z" fill="#569400"/>
</g>
<defs>
<clipPath id="clip0_661_5093">
<rect width="34" height="34" fill="white" transform="translate(0.67041)"/>
</clipPath>
</defs>
</svg>
