<svg width="34" height="34" viewBox="0 0 34 34" fill="none" xmlns="http://www.w3.org/2000/svg">
<path d="M6.64062 19.3906H3.98438C2.51739 19.3906 1.32812 18.2014 1.32812 16.7344V3.98438C1.32812 2.51739 2.51739 1.32812 3.98438 1.32812H6.64062C8.10761 1.32812 9.29688 2.51739 9.29688 3.98438V16.7344C9.29688 18.2014 8.10761 19.3906 6.64062 19.3906Z" stroke="white" stroke-width="1.5" stroke-miterlimit="10" stroke-linecap="round" stroke-linejoin="round"/>
<path d="M16.7344 32.6719H3.98438C2.51739 32.6719 1.32812 31.4826 1.32812 30.0156V27.3594C1.32812 25.8924 2.51739 24.7031 3.98438 24.7031H16.7344C18.2014 24.7031 19.3906 25.8924 19.3906 27.3594V30.0156C19.3906 31.4826 18.2014 32.6719 16.7344 32.6719Z" stroke="white" stroke-width="1.5" stroke-miterlimit="10" stroke-linecap="round" stroke-linejoin="round"/>
<path d="M30.0156 32.6719H27.3594C25.8924 32.6719 24.7031 31.4826 24.7031 30.0156V27.3594C24.7031 25.8924 25.8924 24.7031 27.3594 24.7031H30.0156C31.4826 24.7031 32.6719 25.8924 32.6719 27.3594V30.0156C32.6719 31.4826 31.4826 32.6719 30.0156 32.6719Z" stroke="white" stroke-width="1.5" stroke-miterlimit="10" stroke-linecap="round" stroke-linejoin="round"/>
<path d="M30.0156 19.3906H17.2656C15.7986 19.3906 14.6094 18.2014 14.6094 16.7344V3.98438C14.6094 2.51739 15.7986 1.32812 17.2656 1.32812H30.0156C31.4826 1.32812 32.6719 2.51739 32.6719 3.98438V16.7344C32.6719 18.2014 31.4826 19.3906 30.0156 19.3906Z" stroke="white" stroke-width="1.5" stroke-miterlimit="10" stroke-linecap="round" stroke-linejoin="round"/>
</svg>
