<svg width="31" height="34" viewBox="0 0 31 34" fill="none" xmlns="http://www.w3.org/2000/svg">
<path d="M27.0591 25.617C28.7159 25.7748 30.193 24.599 30.1828 23.124C30.1828 22.4662 29.8958 21.868 29.4269 21.4208" stroke="#569400" stroke-miterlimit="10" stroke-linecap="round" stroke-linejoin="round"/>
<path d="M1.91416 21.4209C1.44533 21.8679 1.15826 22.4663 1.15826 23.1241C1.14803 24.599 2.6253 25.7748 4.28194 25.617" stroke="#569400" stroke-miterlimit="10" stroke-linecap="round" stroke-linejoin="round"/>
<path d="M12.5699 25.1018C12.5699 24.6082 12.1698 24.2081 11.6762 24.2081C11.1826 24.2081 10.7825 24.6082 10.7825 25.1018" stroke="#569400" stroke-miterlimit="10" stroke-linecap="round" stroke-linejoin="round"/>
<path d="M18.7712 25.1018C18.7712 24.6082 19.1714 24.2081 19.6649 24.2081C20.1585 24.2081 20.5586 24.6082 20.5586 25.1018" stroke="#569400" stroke-miterlimit="10" stroke-linecap="round" stroke-linejoin="round"/>
<path d="M14.7224 26.1464C14.9529 26.4109 15.292 26.5783 15.6704 26.5783C16.0488 26.5783 16.3879 26.4109 16.6184 26.1464" stroke="#569400" stroke-miterlimit="10" stroke-linecap="round" stroke-linejoin="round"/>
<path d="M4.28198 32.3759C4.58732 32.4418 5.0347 32.4795 5.35969 32.4795C6.53926 32.4795 7.61153 32.0225 8.41112 31.2769" stroke="#569400" stroke-miterlimit="10" stroke-linecap="round" stroke-linejoin="round"/>
<path d="M2.07388 24.9651C1.33524 25.763 0.883545 26.8302 0.883545 28.0034C0.883545 29.3235 1.4551 30.5103 2.36421 31.3295" stroke="#569400" stroke-miterlimit="10" stroke-linecap="round" stroke-linejoin="round"/>
<path d="M22.9299 31.2769C23.7295 32.0225 24.8018 32.4795 25.9814 32.4795C28.4535 32.4795 30.4575 30.4755 30.4575 28.0034C30.4575 26.8302 30.0058 25.763 29.2671 24.9651" stroke="#569400" stroke-miterlimit="10" stroke-linecap="round" stroke-linejoin="round"/>
<path d="M4.15559 21.154C4.01587 21.794 3.94189 22.4547 3.94189 23.1307C3.94189 28.8586 9.19297 33.5019 15.6705 33.5019C22.148 33.5019 27.3991 28.8586 27.3991 23.1308C27.3991 22.4534 27.3248 21.7915 27.1846 21.1505" stroke="#569400" stroke-miterlimit="10" stroke-linecap="round" stroke-linejoin="round"/>
<path d="M15.6707 1.96197V0.498047" stroke="#569400" stroke-miterlimit="10" stroke-linecap="round" stroke-linejoin="round"/>
<path d="M9.53124 8.10123H8.06738" stroke="#569400" stroke-miterlimit="10" stroke-linecap="round" stroke-linejoin="round"/>
<path d="M23.2737 8.10123H21.8098" stroke="#569400" stroke-miterlimit="10" stroke-linecap="round" stroke-linejoin="round"/>
<path d="M11.3296 3.76012L10.2944 2.72498" stroke="#569400" stroke-miterlimit="10" stroke-linecap="round" stroke-linejoin="round"/>
<path d="M21.0469 2.72498L20.0117 3.76012" stroke="#569400" stroke-miterlimit="10" stroke-linecap="round" stroke-linejoin="round"/>
<path d="M12.4636 12.979H18.8774C19.5236 12.979 20.0475 13.5029 20.0475 14.1491C20.0475 14.7954 19.5236 15.3193 18.8774 15.3193H12.4636C11.8173 15.3193 11.2935 14.7954 11.2935 14.1491C11.2935 13.5029 11.8173 12.979 12.4636 12.979Z" stroke="#569400" stroke-miterlimit="10" stroke-linecap="round" stroke-linejoin="round"/>
<path d="M15.6707 8.50146V12.979" stroke="#569400" stroke-miterlimit="10" stroke-linecap="round" stroke-linejoin="round"/>
<path d="M17.6963 12.979V12.7764C17.6963 12.0544 17.9629 11.3508 18.4676 10.8344C19.1566 10.1293 19.5813 9.16492 19.5813 8.10123C19.5813 5.94136 17.8304 4.1905 15.6705 4.19043C13.5396 4.19043 11.8198 5.86095 11.7613 7.99112C11.7311 9.09075 12.1549 10.0914 12.859 10.8195C13.3637 11.3415 13.6447 12.0398 13.6447 12.7659V12.979" stroke="#569400" stroke-miterlimit="10" stroke-linecap="round" stroke-linejoin="round"/>
<path d="M13.6448 15.3192V16.6409C13.6448 17.6739 14.4822 18.5113 15.5152 18.5113H15.8261C16.8591 18.5113 17.6966 17.6739 17.6966 16.6409V15.3192" stroke="#569400" stroke-miterlimit="10" stroke-linecap="round" stroke-linejoin="round"/>
<path d="M12.0894 9.67319C6.22814 11.0668 1.91333 15.7979 1.91333 21.4209C2.69679 21.4209 3.43377 21.3584 4.15321 21.1605C4.71528 19.4634 5.51009 18.2595 6.48699 17.4065V19.51C6.48699 20.641 7.4038 21.5578 8.53476 21.5578H22.8059C23.9369 21.5578 24.8537 20.641 24.8537 19.51V17.4077C25.8311 18.2597 26.6252 19.4613 27.1869 21.1574C27.8893 21.3251 28.6333 21.4209 29.4274 21.4209C29.4274 18.0968 27.919 15.0845 25.4751 12.8888" stroke="#569400" stroke-miterlimit="10" stroke-linecap="round" stroke-linejoin="round"/>
<path d="M23.6606 11.5174C22.3447 10.6857 20.8559 10.0544 19.2515 9.67279" stroke="#569400" stroke-miterlimit="10" stroke-linecap="round" stroke-linejoin="round"/>
</svg>
