<svg width="428" height="832" viewBox="0 0 428 832" fill="none" xmlns="http://www.w3.org/2000/svg">
<path opacity="0.05" d="M-80.9999 830.846C-47.3042 813.57 -63.2507 801.922 -32.4999 779.5C-4.49994 770.5 15.5001 770 74.7656 741.128C114 722.015 136.164 709.857 145.269 677.709C149.516 662.712 144.762 649.85 138.013 636.328C125.561 611.379 107.899 590.186 91.8413 567.577C75.6097 544.723 61.2722 522.85 63.9958 493.784C67.4286 457.15 90.0892 426.911 117.525 403.799C181.617 349.808 263.899 323.418 326.008 266.27C352.014 242.341 372.526 213.119 382.851 179.094C391.639 150.132 380.75 124.388 367.822 98.6491C360.14 83.357 349.896 68.4327 351.912 50.5704C355.556 18.2914 376.945 -8.95565 402.752 -27.1113C445.807 -57.4017 499.332 -65.5214 545.392 -89.8067" stroke="#4A4A4A" stroke-width="1.2" stroke-linecap="round"/>
</svg>
