<svg width="34" height="34" viewBox="0 0 34 34" fill="none" xmlns="http://www.w3.org/2000/svg">
<g clip-path="url(#clip0_111_2262)">
<path d="M22.619 24.7996C21.6614 25.7352 20.3515 26.3117 18.907 26.3117H15.0928C12.1588 26.3117 9.78027 23.9332 9.78027 20.9992V19.0028" stroke="#569400" stroke-miterlimit="10" stroke-linecap="round" stroke-linejoin="round"/>
<path d="M24.2196 19.0473V20.9991C24.2196 21.6908 24.0874 22.3516 23.8469 22.9576" stroke="#569400" stroke-miterlimit="10" stroke-linecap="round" stroke-linejoin="round"/>
<path d="M12.1292 2.38865C13.4131 1.21444 15.1229 0.498047 17 0.498047C20.9873 0.498047 24.2196 3.7304 24.2196 7.71766V14.9219" stroke="#569400" stroke-miterlimit="10" stroke-linecap="round" stroke-linejoin="round"/>
<path d="M9.78027 14.9373V7.71765C9.78027 6.39881 10.1339 5.16252 10.7515 4.09848" stroke="#569400" stroke-miterlimit="10" stroke-linecap="round" stroke-linejoin="round"/>
<path d="M28.3451 19.0473C27.7754 19.0473 27.3137 18.5855 27.3137 18.0159V15.9532C27.3137 15.3836 27.7754 14.9219 28.3451 14.9219C28.9147 14.9219 29.3764 15.3837 29.3764 15.9532V18.0159C29.3765 18.5856 28.9147 19.0473 28.3451 19.0473Z" stroke="#569400" stroke-miterlimit="10" stroke-linecap="round" stroke-linejoin="round"/>
<path d="M27.3137 18.016H25.251" stroke="#569400" stroke-miterlimit="10" stroke-linecap="round" stroke-linejoin="round"/>
<path d="M25.251 15.9532H27.3137" stroke="#569400" stroke-miterlimit="10" stroke-linecap="round" stroke-linejoin="round"/>
<path d="M5.65489 19.0473C6.22452 19.0473 6.68625 18.5855 6.68625 18.0159V15.9532C6.68625 15.3836 6.22446 14.9219 5.65489 14.9219C5.08526 14.9219 4.62354 15.3837 4.62354 15.9532V18.0159C4.62354 18.5856 5.08526 19.0473 5.65489 19.0473Z" stroke="#569400" stroke-miterlimit="10" stroke-linecap="round" stroke-linejoin="round"/>
<path d="M8.74899 15.9532H6.68628" stroke="#569400" stroke-miterlimit="10" stroke-linecap="round" stroke-linejoin="round"/>
<path d="M6.68628 18.016H8.74899" stroke="#569400" stroke-miterlimit="10" stroke-linecap="round" stroke-linejoin="round"/>
<path d="M13.0532 11.6821H13.087" stroke="#569400" stroke-linecap="round" stroke-linejoin="round"/>
<path d="M14.9973 11.6821H19.9579" stroke="#569400" stroke-linecap="round" stroke-linejoin="round" stroke-dasharray="0.93 28.77"/>
<path d="M20.9131 11.6821H20.9468" stroke="#569400" stroke-linecap="round" stroke-linejoin="round"/>
<path d="M15.1953 3.75317H15.229" stroke="#569400" stroke-linecap="round" stroke-linejoin="round"/>
<path d="M16.9722 3.75317H17.8999" stroke="#569400" stroke-linecap="round" stroke-linejoin="round" stroke-dasharray="0.85 26.25"/>
<path d="M18.7712 3.75317H18.805" stroke="#569400" stroke-linecap="round" stroke-linejoin="round"/>
<path d="M12.0815 9.09818H12.1153" stroke="#569400" stroke-linecap="round" stroke-linejoin="round"/>
<path d="M14.02 9.09818H20.9324" stroke="#569400" stroke-linecap="round" stroke-linejoin="round" stroke-dasharray="0.93 28.68"/>
<path d="M21.885 9.09818H21.9187" stroke="#569400" stroke-linecap="round" stroke-linejoin="round"/>
<path d="M13.906 6.42566H13.9397" stroke="#569400" stroke-linecap="round" stroke-linejoin="round"/>
<path d="M15.937 6.42566H19.0618" stroke="#569400" stroke-linecap="round" stroke-linejoin="round" stroke-dasharray="0.97 30.08"/>
<path d="M20.0605 6.42566H20.0943" stroke="#569400" stroke-linecap="round" stroke-linejoin="round"/>
<path d="M15.9387 31.4392V28.3743" stroke="#569400" stroke-miterlimit="10" stroke-linecap="round" stroke-linejoin="round"/>
<path d="M18.0613 28.3743V31.4392" stroke="#569400" stroke-miterlimit="10" stroke-linecap="round" stroke-linejoin="round"/>
<path d="M21.1254 33.5019H12.8745C12.8745 32.3627 13.798 31.4392 14.9372 31.4392H19.0627C20.2019 31.4392 21.1254 32.3627 21.1254 33.5019Z" stroke="#569400" stroke-miterlimit="10" stroke-linecap="round" stroke-linejoin="round"/>
<path d="M28.345 6.55984V10.6853" stroke="#569400" stroke-miterlimit="10" stroke-linecap="round" stroke-linejoin="round"/>
<path d="M30.408 7.59128V9.65399" stroke="#569400" stroke-miterlimit="10" stroke-linecap="round" stroke-linejoin="round"/>
<path d="M26.2822 7.59128V9.65399" stroke="#569400" stroke-miterlimit="10" stroke-linecap="round" stroke-linejoin="round"/>
<path d="M5.65503 10.6853V6.55984" stroke="#569400" stroke-miterlimit="10" stroke-linecap="round" stroke-linejoin="round"/>
<path d="M3.59204 9.65399V7.59128" stroke="#569400" stroke-miterlimit="10" stroke-linecap="round" stroke-linejoin="round"/>
<path d="M7.71777 9.65399V7.59128" stroke="#569400" stroke-miterlimit="10" stroke-linecap="round" stroke-linejoin="round"/>
<path d="M14.9912 19.0473H24.2549C24.805 19.0473 25.251 18.6013 25.251 18.0512V15.9179C25.251 15.3678 24.805 14.9218 24.2549 14.9218H9.74513C9.19501 14.9218 8.74902 15.3678 8.74902 15.9179V18.0512C8.74902 18.6013 9.19501 19.0473 9.74513 19.0473H12.8206" stroke="#569400" stroke-miterlimit="10" stroke-linecap="round" stroke-linejoin="round"/>
<path d="M19.5785 26.3115V27.0461C19.5785 27.7796 18.9839 28.3742 18.2503 28.3742H15.7498C15.0162 28.3742 14.4216 27.7796 14.4216 27.0461V26.3115" stroke="#569400" stroke-miterlimit="10" stroke-linecap="round" stroke-linejoin="round"/>
</g>
<defs>
<clipPath id="clip0_111_2262">
<rect width="34" height="34" fill="white"/>
</clipPath>
</defs>
</svg>
