<svg width="35" height="34" viewBox="0 0 35 34" fill="none" xmlns="http://www.w3.org/2000/svg">
<path d="M34.5446 9.32767C33.8338 6.98546 30.6445 6.62029 29.4142 8.7512L27.9143 11.3493V6.23361C27.9143 5.95849 27.6913 5.73556 27.4162 5.73556C27.1411 5.73556 26.9182 5.95849 26.9182 6.23361V13.0746C18.8098 27.119 19.3051 26.2345 19.2793 26.3528C19.2778 26.3598 18.7584 30.9281 18.7922 31.1684C18.9015 31.9561 19.7762 32.3365 20.4556 31.8385C24.3623 28.9828 24.146 29.1657 24.2229 29.032L26.9182 24.3637V32.704C26.9182 32.866 26.7814 33.0028 26.6194 33.0028H7.44543V0.997221H9.07072V4.52671C9.07072 5.65083 10.5624 6.05053 11.1236 5.07509L11.4226 4.55533C11.5358 4.3587 11.8199 4.35797 11.9334 4.55533C12.1191 4.78715 12.323 5.62792 13.178 5.62772C13.7775 5.62772 14.2853 5.16002 14.2853 4.52671V0.997221H26.6194C26.7814 0.997221 26.9182 1.13402 26.9182 1.29605V3.9094C26.9182 4.18452 27.1412 4.40744 27.4163 4.40744C27.6914 4.40744 27.9143 4.18452 27.9143 3.9094V1.29605C27.9143 0.58205 27.3334 0.00112915 26.6194 0.00112915C25.8535 0.00112915 4.75724 0.00112915 3.92431 0.00112915C3.21031 0.00112915 2.62939 0.58205 2.62939 1.29605V3.86265C1.28115 3.97162 0.67041 4.52359 0.67041 5.0715C0.67041 5.80416 1.59067 6.18719 2.62939 6.27823V8.68154C1.28115 8.79044 0.67041 9.34241 0.67041 9.89026C0.67041 10.6229 1.59067 11.006 2.62939 11.097V13.5002C1.28115 13.6092 0.67041 14.1612 0.67041 14.709C0.67041 15.4417 1.59067 15.8247 2.62939 15.9158V18.3191C1.28115 18.428 0.67041 18.98 0.67041 19.5279C0.67041 20.2606 1.59067 20.6436 2.62939 20.7346V23.138C1.28115 23.2468 0.67041 23.7988 0.67041 24.3467C0.67041 25.0793 1.59067 25.4624 2.62939 25.5534V27.9567C1.28115 28.0657 0.67041 28.6177 0.67041 29.1656C0.67041 29.8982 1.59067 30.2813 2.62939 30.3723V32.704C2.62939 33.418 3.21031 33.9989 3.92431 33.9989C4.75532 33.9989 25.8351 33.9989 26.6194 33.9989C27.3334 33.9989 27.9143 33.418 27.9143 32.704V22.6383C28.8477 21.0217 33.5682 12.8455 33.9514 12.1817C34.0598 11.9064 35.0054 10.8456 34.5446 9.32767ZM10.0668 0.997221H13.2892C13.2892 4.8673 13.3221 4.59743 13.2123 4.62678C13.1089 4.65447 13.1226 4.62432 12.7967 4.05854C12.3983 3.36613 11.6853 3.41354 11.678 3.41155C10.4869 3.41155 10.4221 4.70023 10.1436 4.62678C10.0325 4.59703 10.0668 4.86505 10.0668 0.997221ZM2.62939 29.3711C2.24722 29.3289 1.96095 29.2439 1.79407 29.1656C1.96095 29.0872 2.24722 29.0022 2.62939 28.96V29.3711ZM2.62939 24.5522C2.24722 24.5101 1.96095 24.425 1.79407 24.3467C1.96095 24.2683 2.24722 24.1833 2.62939 24.1411V24.5522ZM2.62939 19.7334C2.24722 19.6913 1.96095 19.6063 1.79407 19.5279C1.96095 19.4496 2.24722 19.3646 2.62939 19.3224V19.7334ZM2.62939 14.9145C2.24722 14.8724 1.96095 14.7874 1.79407 14.709C1.96095 14.6307 2.24722 14.5457 2.62939 14.5035V14.9145ZM2.62939 10.0957C2.24722 10.0536 1.96095 9.96856 1.79413 9.89026C1.96095 9.8119 2.24722 9.7269 2.62939 9.68474V10.0957ZM2.62939 5.27703C2.24722 5.23486 1.96095 5.14986 1.79407 5.0715C1.96095 4.99314 2.24722 4.90814 2.62939 4.86598V5.27703ZM6.44934 33.0027H3.92431C3.76235 33.0027 3.62548 32.8659 3.62548 32.7039V30.3745C5.98569 30.1845 5.85779 28.6675 5.08808 28.6675C4.84045 28.6675 4.63499 28.8482 4.59654 29.085C4.49122 29.1759 4.14783 29.3136 3.62548 29.371C3.62548 28.8887 3.62548 25.9872 3.62548 25.5557C5.98569 25.3657 5.85779 23.8486 5.08808 23.8486C4.84045 23.8486 4.63499 24.0294 4.59654 24.2661C4.49122 24.3571 4.14783 24.4948 3.62548 24.5522C3.62548 24.0698 3.62548 21.1683 3.62548 20.7368C5.98569 20.5469 5.85779 19.0298 5.08808 19.0298C4.84045 19.0298 4.63499 19.2106 4.59654 19.4473C4.49122 19.5383 4.14783 19.6759 3.62548 19.7334C3.62548 19.251 3.62548 16.3495 3.62548 15.918C5.98569 15.728 5.85779 14.211 5.08808 14.211C4.84045 14.211 4.63499 14.3917 4.59654 14.6285C4.49122 14.7194 4.14783 14.8571 3.62548 14.9145C3.62548 14.4322 3.62548 11.5308 3.62548 11.0993C5.98569 10.9093 5.85779 9.39222 5.08808 9.39222C4.84045 9.39222 4.63506 9.57297 4.59654 9.80965C4.49122 9.90062 4.14783 10.0383 3.62548 10.0958C3.62548 9.61342 3.62548 6.71193 3.62548 6.28043C5.98569 6.09044 5.85779 4.57339 5.08808 4.57339C4.84045 4.57339 4.63499 4.75415 4.59654 4.99089C4.49122 5.08186 4.14783 5.21952 3.62548 5.27696C3.62548 4.11359 3.62548 3.1699 3.62548 1.29605C3.62548 1.13388 3.76235 0.997022 3.92431 0.997022H6.4494L6.44934 33.0027ZM20.9011 30.2789C19.9267 30.9785 19.8544 31.0717 19.7903 31.0651C19.7444 31.0394 19.8336 30.6088 19.9596 29.303C20.4122 29.451 20.8599 29.7039 21.2315 30.0373L20.9011 30.2789ZM23.3993 28.4528L22.0483 29.4404C21.5063 28.9047 20.8175 28.5027 20.0683 28.2972L20.2481 26.6332C20.622 26.1491 21.3968 26.3893 21.4352 26.9989C21.4655 27.4747 21.9594 27.843 22.4843 27.6097C23.0877 27.34 23.6188 27.9159 23.3993 28.4528ZM24.121 27.2162C23.6605 26.5903 22.9793 26.5564 22.9706 26.5523L23.9601 24.8384C24.0976 24.6002 24.016 24.2956 23.7778 24.1581C23.5394 24.0206 23.2349 24.1021 23.0975 24.3404L22.1076 26.0548C21.8234 25.6694 21.4023 25.4393 20.9579 25.3899C21.3509 24.7095 27.7335 13.6544 27.8836 13.3943L29.0339 14.0584L24.2607 22.3257C24.1232 22.5639 24.2048 22.8685 24.443 23.0061C24.6812 23.1435 24.9858 23.062 25.1233 22.8238L29.8965 14.5564C30.1803 14.7202 30.7623 15.0563 31.0468 15.2205C30.7782 15.6855 25.0474 25.6116 24.121 27.2162ZM31.5448 14.3579L28.3818 12.5317L28.7802 11.8415C29.7864 12.4225 30.937 13.0869 31.9432 13.6678L31.5448 14.3579ZM32.4413 12.8052C31.4351 12.2242 30.2844 11.5599 29.2782 10.979L29.6767 10.2888L32.8397 12.115L32.4413 12.8052ZM33.3378 11.2524L30.1747 9.42622L30.2769 9.24924C31.0706 7.87451 33.1321 8.10347 33.5914 9.61694C33.8672 10.5255 33.3559 11.2013 33.3378 11.2524Z" fill="#569400"/>
</svg>
