<svg width="35" height="34" viewBox="0 0 35 34" fill="none" xmlns="http://www.w3.org/2000/svg">
<g clip-path="url(#clip0_111_2327)">
<mask id="mask0_111_2327" style="mask-type:luminance" maskUnits="userSpaceOnUse" x="0" y="0" width="35" height="34">
<path d="M0.67041 3.8147e-06H34.6704V34H0.67041V3.8147e-06Z" fill="white"/>
</mask>
<g mask="url(#mask0_111_2327)">
<path d="M15.4181 15.6719H14.2095C13.6594 15.6719 13.2134 15.2259 13.2134 14.6758C13.2134 14.1257 13.6594 13.6797 14.2095 13.6797H15.4181C15.9682 13.6797 16.4142 14.1257 16.4142 14.6758C16.4142 15.2259 15.9682 15.6719 15.4181 15.6719Z" stroke="#569400" stroke-miterlimit="10" stroke-linecap="round" stroke-linejoin="round"/>
<path d="M8.54089 20.335H7.68557C4.58905 20.335 2.89436 16.7264 4.87194 14.3438L4.98218 14.211C5.85343 13.1611 6.33022 11.8403 6.33022 10.4763V8.085C6.33022 3.89477 9.7269 0.498086 13.9178 0.498086C16.0129 0.498086 17.9095 1.34742 19.2828 2.72004C19.9104 3.34771 20.4285 4.08489 20.8061 4.90049" stroke="#569400" stroke-miterlimit="10" stroke-linecap="round" stroke-linejoin="round"/>
<path d="M19.304 20.335H20.0829C22.2564 20.335 23.7366 18.5579 23.7459 16.6766" stroke="#569400" stroke-miterlimit="10" stroke-linecap="round" stroke-linejoin="round"/>
<path d="M11.1845 17.2776V17.3022C11.1845 18.4457 10.5058 19.4803 9.45728 19.9365L3.96947 22.3225C2.27213 23.037 1.16846 24.6985 1.16846 26.54V33.502" stroke="#569400" stroke-miterlimit="10" stroke-linecap="round" stroke-linejoin="round"/>
<path d="M16.584 17.2769C16.5846 18.4251 17.2693 19.4623 18.3252 19.9152L23.8774 22.2952C25.5329 23.0284 26.6 24.6686 26.6 26.4788V33.502" stroke="#569400" stroke-miterlimit="10" stroke-linecap="round" stroke-linejoin="round"/>
<path d="M22.2393 33.502V30.4632H26.5999V33.502" stroke="#569400" stroke-miterlimit="10" stroke-linecap="round" stroke-linejoin="round"/>
<path d="M1.16846 33.502V30.4632H5.52909V33.502" stroke="#569400" stroke-miterlimit="10" stroke-linecap="round" stroke-linejoin="round"/>
<path d="M22.2393 30.4632V29.3197" stroke="#569400" stroke-miterlimit="10" stroke-linecap="round" stroke-linejoin="round"/>
<path d="M5.52905 30.4632V29.3197" stroke="#569400" stroke-miterlimit="10" stroke-linecap="round" stroke-linejoin="round"/>
<path d="M19.6941 33.502V20.5023" stroke="#569400" stroke-miterlimit="10" stroke-linecap="round" stroke-linejoin="round"/>
<path d="M8.07422 27.4252V20.5381" stroke="#569400" stroke-miterlimit="10" stroke-linecap="round" stroke-linejoin="round"/>
<path d="M8.07422 33.502V29.4174" stroke="#569400" stroke-miterlimit="10" stroke-linecap="round" stroke-linejoin="round"/>
<path d="M8.07422 22.4918C9.47539 22.9105 11.5378 23.357 14.0516 23.3131C16.4104 23.2719 18.3467 22.8132 19.694 22.3829" stroke="#569400" stroke-miterlimit="10" stroke-linecap="round" stroke-linejoin="round"/>
<path d="M14.3823 26.1641C14.3823 26.4391 14.1594 26.6621 13.8843 26.6621C13.6092 26.6621 13.3862 26.4391 13.3862 26.1641C13.3862 25.889 13.6092 25.666 13.8843 25.666C14.1594 25.666 14.3823 25.889 14.3823 26.1641Z" fill="#569400"/>
<path d="M14.3823 29.1523C14.3823 29.4274 14.1594 29.6504 13.8843 29.6504C13.6092 29.6504 13.3862 29.4274 13.3862 29.1523C13.3862 28.8773 13.6092 28.6543 13.8843 28.6543C14.1594 28.6543 14.3823 28.8773 14.3823 29.1523Z" fill="#569400"/>
<path d="M14.3823 32.1406C14.3823 32.4157 14.1594 32.6387 13.8843 32.6387C13.6092 32.6387 13.3862 32.4157 13.3862 32.1406C13.3862 31.8656 13.6092 31.6426 13.8843 31.6426C14.1594 31.6426 14.3823 31.8656 14.3823 32.1406Z" fill="#569400"/>
<path d="M19.2807 8.66336V13.1159C19.2807 15.6327 17.2407 17.6727 14.7246 17.6727H13.0439C10.5271 17.6727 8.48706 15.6327 8.48706 13.1159V8.67266" stroke="#569400" stroke-miterlimit="10" stroke-linecap="round" stroke-linejoin="round"/>
<path d="M19.281 12.0045C19.1235 12.4048 18.753 13.1847 17.9479 13.8488C17.3692 14.3262 16.7898 14.5591 16.4143 14.6758" stroke="#569400" stroke-miterlimit="10" stroke-linecap="round" stroke-linejoin="round"/>
<path d="M15.4181 15.6719H14.2095C13.6594 15.6719 13.2134 15.2259 13.2134 14.6758C13.2134 14.1257 13.6594 13.6797 14.2095 13.6797H15.4181C15.9682 13.6797 16.4142 14.1257 16.4142 14.6758C16.4142 15.2259 15.9682 15.6719 15.4181 15.6719Z" stroke="#569400" stroke-miterlimit="10" stroke-linecap="round" stroke-linejoin="round"/>
<path d="M15.2034 5.85638C15.7731 7.18717 17.2812 8.39775 19.3478 8.67267C19.7761 8.7351 20.4036 8.78291 21.1401 8.67267" stroke="#569400" stroke-miterlimit="10" stroke-linecap="round" stroke-linejoin="round"/>
<path d="M18.4818 2.02431C17.8482 3.12686 16.3933 5.30664 13.6651 6.92038C11.6398 8.11841 9.73012 8.52097 8.55407 8.67297H6.33032V8.08528" stroke="#569400" stroke-miterlimit="10" stroke-linecap="round" stroke-linejoin="round"/>
<path d="M34.1724 10.082C34.1724 6.40703 31.1667 3.43396 27.4795 3.48702C23.9079 3.53842 21.0037 6.46746 20.9811 10.0394C20.9685 12.0397 21.8466 13.835 23.2419 15.0528C23.3891 15.1813 23.3679 15.4158 23.1997 15.5153L21.9569 16.2507C21.756 16.3696 21.8403 16.6776 22.0738 16.6775L27.7016 16.6762C31.2866 16.6095 34.1724 13.683 34.1724 10.082Z" stroke="#569400" stroke-miterlimit="10" stroke-linecap="round" stroke-linejoin="round"/>
<path d="M27.073 14.5836C27.073 14.8617 27.2984 15.0872 27.5766 15.0872C27.8547 15.0872 28.0802 14.8617 28.0802 14.5836C28.0802 14.3055 27.8547 14.08 27.5766 14.08C27.2984 14.08 27.073 14.3055 27.073 14.5836Z" fill="#569400"/>
<path d="M25.4595 8.24699C25.4595 8.14678 25.4664 8.04817 25.4799 7.95168C25.6255 6.9081 26.5318 6.10817 27.6205 6.13009C28.7218 6.15227 29.6342 7.03428 29.6912 8.13436C29.7545 9.35338 28.7836 10.3643 27.5768 10.3643V12.5784" stroke="#569400" stroke-miterlimit="10" stroke-linecap="round" stroke-linejoin="round"/>
</g>
</g>
<defs>
<clipPath id="clip0_111_2327">
<rect width="34" height="34" fill="white" transform="translate(0.67041)"/>
</clipPath>
</defs>
</svg>
