<svg width="30" height="30" viewBox="0 0 30 30" fill="none" xmlns="http://www.w3.org/2000/svg">
<mask id="mask0_111_7249" style="mask-type:luminance" maskUnits="userSpaceOnUse" x="1" y="1" width="28" height="28">
<path d="M1.36377 1.36362H28.6365V28.6364H1.36377V1.36362Z" fill="white"/>
</mask>
<g mask="url(#mask0_111_7249)">
<path d="M8.64391 4.48108H16.9884C17.4378 4.48108 17.8056 4.84799 17.8056 5.29644V7.28357H7.8252V5.29644C7.8252 4.84799 8.19295 4.48108 8.64391 4.48108Z" stroke="white" stroke-opacity="0.6" stroke-miterlimit="10" stroke-linecap="round" stroke-linejoin="round"/>
<path d="M8.8374 4.48108V2.7703C8.8374 2.21611 9.2914 1.76318 9.84681 1.76318H15.7835C16.3389 1.76318 16.7929 2.21611 16.7929 2.7703V4.48108" stroke="white" stroke-opacity="0.6" stroke-miterlimit="10" stroke-linecap="round" stroke-linejoin="round"/>
<path d="M12.7417 7.28357V4.48108" stroke="white" stroke-opacity="0.6" stroke-miterlimit="10" stroke-linecap="round" stroke-linejoin="round"/>
<path d="M10.3809 7.28357V4.48108" stroke="white" stroke-opacity="0.6" stroke-miterlimit="10" stroke-linecap="round" stroke-linejoin="round"/>
<path d="M15.104 7.28357V4.48108" stroke="white" stroke-opacity="0.6" stroke-miterlimit="10" stroke-linecap="round" stroke-linejoin="round"/>
<path d="M12.1394 18.2564H10.1872C9.68784 18.2564 9.72715 18.0782 10.0208 17.6947L13.1609 13.6027C13.456 13.2177 13.8071 12.8311 13.6194 13.6027L12.9279 16.4369C12.8461 16.7691 12.89 16.828 13.2502 16.828H15.2901C15.8092 16.828 15.7517 17.0062 15.4566 17.3912L12.318 21.4832C12.0214 21.8682 11.7293 22.0207 11.8594 21.4832L12.5313 18.7336C12.6161 18.3817 12.5132 18.2564 12.1394 18.2564Z" stroke="white" stroke-opacity="0.6" stroke-miterlimit="10" stroke-linecap="round" stroke-linejoin="round"/>
<path d="M19.311 22.8029L22.3468 26.0161" stroke="white" stroke-opacity="0.6" stroke-miterlimit="10" stroke-linecap="round" stroke-linejoin="round"/>
<path d="M24.1643 21.2733C24.9997 22.1566 24.9573 23.5624 24.072 24.3943C22.9612 25.4392 21.7324 26.5944 20.6232 27.6377C19.7364 28.4712 18.329 28.4289 17.4937 27.5456C16.6583 26.6623 16.7007 25.2565 17.5859 24.423L21.0348 21.1812C21.9216 20.3476 23.3289 20.3884 24.1643 21.2733Z" stroke="white" stroke-opacity="0.6" stroke-miterlimit="10" stroke-linecap="round" stroke-linejoin="round"/>
<path d="M5.23584 16.8129V9.86856C5.23584 8.44771 6.40106 7.28356 7.8251 7.28356M18.3275 28.0968C18.1142 28.1542 17.8902 28.1843 17.6602 28.1843H7.8251C6.40106 28.1843 5.23584 27.0217 5.23584 25.6008V18.6565M17.6602 7.28356C19.0842 7.28356 20.2495 8.44771 20.2495 9.86856V21.9195" stroke="white" stroke-opacity="0.6" stroke-miterlimit="10" stroke-linecap="round" stroke-linejoin="round"/>
<path d="M17.9235 24.1075H5.23584M13.6666 11.362H20.2495M5.23584 11.362H11.8188" stroke="white" stroke-opacity="0.6" stroke-miterlimit="10" stroke-linecap="round" stroke-linejoin="round"/>
</g>
</svg>
