<svg width="24" height="24" viewBox="0 0 24 24" fill="none" xmlns="http://www.w3.org/2000/svg">
<g clip-path="url(#clip0_34_1405)">
<mask id="mask0_34_1405" style="mask-type:luminance" maskUnits="userSpaceOnUse" x="0" y="0" width="24" height="24">
<path d="M0 1.90735e-06H24V24H0V1.90735e-06Z" fill="white"/>
</mask>
<g mask="url(#mask0_34_1405)">
<path d="M18.9994 21.1673V21.1678C17.0592 22.6509 14.6334 23.5312 12 23.5312C9.36704 23.5312 6.94125 22.6509 5.0011 21.1678C5.34094 17.6016 8.34465 14.8125 12 14.8125C15.6553 14.8125 18.6586 17.6011 18.9994 21.1673Z" fill="black"/>
<path d="M12 5.4375C14.0677 5.4375 15.75 7.11984 15.75 9.1875C15.75 11.2552 14.0677 12.9375 12 12.9375C9.93234 12.9375 8.25 11.2552 8.25 9.1875C8.25 7.11984 9.93234 5.4375 12 5.4375Z" fill="black"/>
<path d="M12 12.9375C9.93234 12.9375 8.25 11.2552 8.25 9.1875C8.25 7.11984 9.93234 5.4375 12 5.4375C14.0677 5.4375 15.75 7.11984 15.75 9.1875C15.75 11.2552 14.0677 12.9375 12 12.9375Z" stroke="black" stroke-miterlimit="10" stroke-linecap="round" stroke-linejoin="round"/>
<path d="M4.99927 21.1861C4.99974 21.18 5.00021 21.1739 5.00114 21.1678C5.34099 17.6016 8.34469 14.8125 12 14.8125C15.6554 14.8125 18.6586 17.6011 18.9994 21.1673" stroke="black" stroke-miterlimit="10" stroke-linecap="round" stroke-linejoin="round"/>
<path d="M21.8635 6.01912C22.922 7.76236 23.5312 9.8093 23.5312 12C23.5312 15.7402 21.7552 19.0617 18.9994 21.1673V21.1678C17.0592 22.6509 14.6334 23.5312 12 23.5312C9.36703 23.5312 6.94125 22.6509 5.00114 21.1678C2.24531 19.0622 0.46875 15.7406 0.46875 12C0.46875 5.62687 5.62594 0.46875 12 0.46875C14.6658 0.46875 17.1191 1.37109 19.0711 2.88741" stroke="black" stroke-miterlimit="10" stroke-linecap="round" stroke-linejoin="round"/>
<path d="M2.13652 6.01912C1.07803 7.76236 0.46875 9.8093 0.46875 12C0.46875 15.7402 2.24484 19.0617 5.00063 21.1673V21.1678C6.94078 22.6509 9.36656 23.5312 12 23.5312C14.633 23.5312 17.0588 22.6509 18.9989 21.1678C21.7547 19.0622 23.5312 15.7406 23.5312 12C23.5312 5.62687 18.3741 0.46875 12 0.46875C9.33417 0.46875 6.88092 1.37109 4.92886 2.88741" stroke="black" stroke-miterlimit="10" stroke-linecap="round" stroke-linejoin="round"/>
</g>
</g>
<defs>
<clipPath id="clip0_34_1405">
<rect width="24" height="24" fill="white"/>
</clipPath>
</defs>
</svg>
