<svg width="9" height="14" viewBox="0 0 9 14" fill="none" xmlns="http://www.w3.org/2000/svg">
<path d="M0.728219 12.8078C0.67015 12.8659 0.624088 12.9348 0.592661 13.0107C0.561234 13.0866 0.545059 13.1679 0.545059 13.25C0.545059 13.3321 0.561234 13.4134 0.592661 13.4893C0.624088 13.5652 0.67015 13.6341 0.728219 13.6922C0.786288 13.7503 0.855226 13.7963 0.931097 13.8277C1.00697 13.8592 1.08828 13.8753 1.17041 13.8753C1.25253 13.8753 1.33385 13.8592 1.40972 13.8277C1.48559 13.7963 1.55453 13.7503 1.61259 13.6922L7.86259 7.44218C7.9207 7.38414 7.9668 7.31521 7.99826 7.23933C8.02971 7.16346 8.0459 7.08213 8.0459 7C8.0459 6.91786 8.02971 6.83653 7.99826 6.76066C7.9668 6.68478 7.9207 6.61585 7.86259 6.55781L1.61259 0.307809C1.49532 0.190534 1.33626 0.124649 1.17041 0.124649C1.00455 0.124649 0.845494 0.190534 0.728219 0.307809C0.610943 0.425084 0.545059 0.584144 0.545059 0.749997C0.545059 0.915849 0.610943 1.07491 0.728219 1.19218L6.53681 7L0.728219 12.8078Z" fill="black"/>
</svg>
