<svg width="34" height="24" viewBox="0 0 34 24" fill="none" xmlns="http://www.w3.org/2000/svg">
<path d="M33.2995 3.83824C32.9075 2.38172 31.7592 1.23362 30.3029 0.841412C27.6423 0.113281 16.9997 0.113281 16.9997 0.113281C16.9997 0.113281 6.35733 0.113281 3.69669 0.813657C2.26844 1.20561 1.09207 2.38198 0.700116 3.83824C0 6.49863 0 12.016 0 12.016C0 12.016 0 17.5612 0.700116 20.1938C1.09233 21.6501 2.24042 22.7984 3.69695 23.1907C6.38535 23.9188 16.9999 23.9188 16.9999 23.9188C16.9999 23.9188 27.6423 23.9188 30.3029 23.2184C31.7594 22.8265 32.9075 21.6781 33.2997 20.2218C33.9999 17.5612 33.9999 12.044 33.9999 12.044C33.9999 12.044 34.0279 6.49863 33.2995 3.83824Z" fill="#F44545"/>
</svg>
